<svg width="40" height="31" viewBox="0 0 40 31" fill="none" xmlns="http://www.w3.org/2000/svg">
<path d="M1.84719e-07 15.4688C1.83011e-07 15.612 0.0501301 15.7301 0.150391 15.8232C0.250651 15.9163 0.365235 15.9629 0.494141 15.9629L33.4296 15.9629L38.1777 15.9414L38.0918 15.8125L33.4726 20.3887L23.7832 30.0781C23.7402 30.1211 23.7116 30.1748 23.6972 30.2393C23.6829 30.3037 23.6757 30.3789 23.6757 30.4648C23.6757 30.5937 23.7187 30.7083 23.8046 30.8086C23.8906 30.9089 24.0123 30.959 24.1699 30.959C24.3131 30.959 24.442 30.9017 24.5566 30.7871L39.4023 15.8555C39.4453 15.7982 39.4811 15.7409 39.5097 15.6836C39.5384 15.6263 39.5527 15.5547 39.5527 15.4688C39.5527 15.3972 39.5384 15.3327 39.5097 15.2754C39.4811 15.2181 39.4453 15.1608 39.4023 15.1036L24.5566 0.150458C24.442 0.050197 24.3131 6.70471e-05 24.1699 6.70454e-05C24.0123 6.70435e-05 23.8906 0.050197 23.8046 0.150458C23.7187 0.250718 23.6757 0.365302 23.6757 0.494208C23.6757 0.580145 23.6829 0.658921 23.6972 0.730536C23.7116 0.80215 23.7402 0.85228 23.7832 0.880926L33.4726 10.5919L38.0918 15.168L38.1777 15.0391L33.4296 14.9747L0.494141 14.9747C0.365235 14.9747 0.250651 15.0248 0.150391 15.1251C0.0501301 15.2253 1.86256e-07 15.3399 1.84718e-07 15.4688L1.84719e-07 15.4688Z" fill="black"/>
</svg>
